<?xml version="1.0" encoding="iso-8859-1"?>
<!-- Uploaded to: SVG Repo, www.svgrepo.com, Generator: SVG Repo Mixer Tools -->
<svg height="800px" width="800px" version="1.1" id="Layer_1" xmlns="http://www.w3.org/2000/svg" xmlns:xlink="http://www.w3.org/1999/xlink" 
	 viewBox="0 0 512.001 512.001" xml:space="preserve">
<polygon style="fill:#FFA4A9;" points="288.685,135.893 256.001,500.008 197.434,119.156 "/>
<polygon style="fill:#FFC5BB;" points="182.023,128.404 226.713,145.862 256.001,500.008 147.279,358.749 "/>
<path style="fill:#FFF1CF;" d="M33.932,211.47l113.347,147.274c55.413-49.369,80.109-129.718,54.675-204.446l-105.553,0.597
	L33.932,211.47z"/>
<path style="fill:#864941;" d="M92.207,18.634l134.506,127.228l29.296-9.968c0-13.22-2.129-26.681-6.638-39.898
	C227.333,31.229,156.974-3.404,92.207,18.634z"/>
<path style="fill:#B26156;" d="M92.207,18.634c47.68-16.224,104.191,23.122,126.239,87.886c4.498,13.22,7.205,26.484,8.267,39.342
	L33.932,211.47c-8.067-10.486-14.589-22.453-19.091-35.683C-7.194,111.031,27.44,40.672,92.207,18.634z"/>
<g>
	<circle style="fill:#864941;" cx="103.955" cy="124.607" r="8.169"/>
	<circle style="fill:#864941;" cx="71.203" cy="94.468" r="8.169"/>
</g>
<polygon style="fill:#FF6761;" points="478.086,211.463 256.001,500.008 441.876,162.475 "/>
<polygon style="fill:#FF9387;" points="424.022,160.403 448.79,201.495 256.001,500.008 255.999,321.754 "/>
<path style="fill:#FFF1CF;" d="M256.002,135.907v185.842c74.023-5.326,142.6-53.938,168.022-128.669l-84.011-63.905L256.002,135.907
	z"/>
<path style="fill:#E44670;" d="M419.796,18.634l28.994,182.861l29.296,9.968c8.063-10.476,14.586-22.443,19.073-35.666
	C519.197,111.031,484.563,40.672,419.796,18.634z"/>
<path style="fill:#FF6288;" d="M419.796,18.634c47.68,16.224,68.466,81.871,46.439,146.641c-4.498,13.22-10.443,25.383-17.445,36.22
	L332.245,161.85l0.002,43.882c0.002,9.021-7.322,16.344-16.343,16.346c-9.018-0.008-16.333-7.317-16.335-16.339l-0.002-55.009
	l-43.566-14.824c0.003-13.231,2.133-26.691,6.634-39.922C284.67,31.229,355.029-3.404,419.796,18.634z"/>
<circle style="fill:#E44670;" cx="441.612" cy="124.607" r="8.169"/>
<path d="M504.895,178.425c11.362-33.388,9.04-69.201-6.535-100.843c-15.576-31.642-42.54-55.325-75.928-66.686
	c-13.791-4.692-28.104-7.072-42.544-7.072c-55.437,0-104.809,34.595-123.886,86.434c-19.078-51.838-68.45-86.433-123.887-86.433
	c-14.44,0-28.753,2.38-42.544,7.072C56.182,22.258,29.218,45.94,13.642,77.582s-17.897,67.455-6.535,100.843
	c4.678,13.751,11.502,26.513,20.278,37.935c0.016,0.022,0.032,0.044,0.048,0.065c0.02,0.026,222.094,288.564,222.094,288.564
	c0.023,0.029,0.049,0.054,0.073,0.084c0.134,0.169,0.276,0.33,0.423,0.488c0.053,0.058,0.105,0.12,0.16,0.176
	c0.204,0.207,0.417,0.404,0.642,0.588c0.032,0.025,0.065,0.047,0.097,0.072c0.196,0.157,0.4,0.305,0.61,0.442
	c0.07,0.046,0.142,0.086,0.212,0.13c0.18,0.11,0.363,0.216,0.551,0.312c0.08,0.04,0.16,0.078,0.241,0.117
	c0.187,0.088,0.378,0.169,0.573,0.243c0.083,0.032,0.166,0.062,0.249,0.092c0.199,0.069,0.403,0.126,0.609,0.18
	c0.083,0.022,0.164,0.046,0.248,0.064c0.217,0.048,0.437,0.084,0.659,0.114c0.075,0.011,0.15,0.026,0.225,0.035
	c0.296,0.033,0.596,0.052,0.9,0.052s0.605-0.02,0.9-0.052c0.076-0.009,0.15-0.024,0.225-0.035c0.222-0.031,0.442-0.066,0.659-0.114
	c0.084-0.019,0.166-0.042,0.248-0.064c0.206-0.053,0.41-0.111,0.609-0.18c0.084-0.028,0.167-0.06,0.249-0.092
	c0.195-0.074,0.386-0.155,0.573-0.243c0.081-0.038,0.161-0.075,0.241-0.117c0.188-0.096,0.371-0.201,0.551-0.312
	c0.071-0.044,0.144-0.084,0.212-0.13c0.21-0.138,0.414-0.286,0.61-0.442c0.032-0.025,0.065-0.047,0.097-0.072
	c0.224-0.184,0.438-0.381,0.642-0.588c0.056-0.057,0.106-0.118,0.16-0.176c0.146-0.158,0.289-0.319,0.423-0.488
	c0.023-0.029,0.05-0.054,0.073-0.084l222.076-288.539c0.027-0.035,0.052-0.072,0.079-0.108c0.028-0.038,0.057-0.076,0.085-0.114
	C493.441,204.84,500.234,192.125,504.895,178.425z M379.887,20.163c12.646,0,25.188,2.087,37.281,6.201
	c60.395,20.551,92.81,86.404,72.26,146.798c-3.484,10.24-8.334,19.841-14.42,28.633l-140.13-47.682
	c-2.493-0.847-5.246-0.441-7.387,1.091c-2.142,1.535-3.414,4.007-3.414,6.642v43.889c0,4.504-3.664,8.169-8.169,8.169
	c-4.504,0-8.169-3.665-8.169-8.169v-55.008c0-3.497-2.226-6.607-5.538-7.733l-37.868-12.885c0.539-10.679,2.552-21.245,6.036-31.486
	C286.338,51.694,330.35,20.163,379.887,20.163z M208.552,252.049c-4.383-1.06-8.8,1.635-9.858,6.022
	c-8.115,33.586-25.826,64.806-50.228,88.823L47.356,215.527l149.315-50.808c5.798,19.918,8.098,40.514,6.832,61.344
	c-0.273,4.504,3.154,8.376,7.658,8.651c0.169,0.01,0.337,0.015,0.503,0.015c4.285,0,7.883-3.34,8.146-7.674
	c1.396-22.961-1.188-45.66-7.664-67.602l35.684-12.143v328.688l-89.329-116.064c27.292-26.322,47.09-60.851,56.072-98.028
	C215.634,257.523,212.938,253.109,208.552,252.049z M315.908,230.243c13.514,0,24.507-10.993,24.507-24.507v-32.48l73.064,24.861
	c-24.499,62.658-81.757,106.603-149.309,114.64V147.312l27.23,9.266v49.158C291.401,219.25,302.394,230.243,315.908,230.243z
	 M264.17,329.203c35.793-3.941,69.864-17.42,98.966-39.225c29.89-22.396,52.52-52.212,65.826-86.593l35.683,12.141L264.17,476
	V329.203z M94.833,26.364c12.092-4.114,24.635-6.201,37.281-6.201c49.538,0,93.549,31.531,109.517,78.461
	c3.484,10.24,5.497,20.807,6.036,31.486L36.994,201.795c-6.087-8.792-10.936-18.394-14.42-28.633
	C2.023,112.768,34.439,46.914,94.833,26.364z"/>
</svg>